<svg width="48" height="48" viewBox="0 0 48 48" fill="none" xmlns="http://www.w3.org/2000/svg">
<mask id="mask0_189_5577" style="mask-type:alpha" maskUnits="userSpaceOnUse" x="0" y="0" width="48" height="48">
<rect width="48" height="48" fill="white"/>
</mask>
<g mask="url(#mask0_189_5577)">
</g>
<g clip-path="url(#clip0_189_5577)">
<path d="M23.7699 44C26.301 44 28.3529 41.9576 28.3529 39.4381C28.3529 36.9186 26.301 34.8762 23.7699 34.8762C21.2388 34.8762 19.187 36.9186 19.187 39.4381C19.187 41.9576 21.2388 44 23.7699 44Z" fill="#F6AE2D"/>
<path d="M23.7656 31.4037C16.175 31.4037 10 25.2571 10 17.7023C10 10.1475 16.175 4 23.7656 4C26.5599 4 29.2498 4.82904 31.5457 6.39801C33.7854 7.92854 35.5073 10.0584 36.5254 12.556C36.8887 13.4488 36.4569 14.4656 35.56 14.8282C34.663 15.1898 33.6406 14.76 33.2773 13.8672C31.6993 9.99284 27.965 7.48912 23.7656 7.48912C18.1084 7.48912 13.5052 12.0711 13.5052 17.7023C13.5052 23.3335 18.1084 27.9154 23.7656 27.9154C27.9782 27.9154 31.7151 25.4021 33.2878 21.512C33.6494 20.6183 34.6692 20.185 35.5679 20.5449C36.4657 20.9049 36.901 21.9209 36.5394 22.8145C35.5258 25.3217 33.8047 27.4594 31.5606 28.9969C29.2613 30.572 26.5661 31.4046 23.7656 31.4046V31.4037Z" fill="#7209B7"/>
</g>
<defs>
<clipPath id="clip0_189_5577">
<rect width="26.6667" height="40" fill="white" transform="translate(10 4)"/>
</clipPath>
</defs>
</svg>
