<svg width="168" height="72" viewBox="0 0 168 72" fill="none" xmlns="http://www.w3.org/2000/svg">
<mask id="mask0_354_7734" style="mask-type:alpha" maskUnits="userSpaceOnUse" x="0" y="0" width="168" height="72">
<rect width="168" height="72" fill="white"/>
</mask>
<g mask="url(#mask0_354_7734)">
</g>
<g clip-path="url(#clip0_354_7734)">
<path d="M85.9665 66C89.7426 66 92.8036 62.9364 92.8036 59.1572C92.8036 55.378 89.7426 52.3143 85.9665 52.3143C82.1905 52.3143 79.1294 55.378 79.1294 59.1572C79.1294 62.9364 82.1905 66 85.9665 66Z" fill="#F6AE2D"/>
<path d="M103.566 30.8161C102.227 30.2762 100.704 30.9262 100.164 32.2667C97.8182 38.1019 92.2419 41.8718 85.9586 41.8718C77.5189 41.8718 70.6517 34.9989 70.6517 26.5521C70.6517 18.1054 77.5189 11.2324 85.9586 11.2324C92.2249 11.2324 97.7946 14.9879 100.149 20.7995C100.691 22.1387 102.216 22.7834 103.554 22.2409C104.892 21.6984 105.536 20.1718 104.994 18.8326C103.476 15.0849 100.907 11.8902 97.5655 9.5957C94.1404 7.24225 90.1261 5.99869 85.9586 5.99869C74.6345 5.99869 65.4224 15.2186 65.4224 26.5521C65.4224 37.8856 74.6345 47.1055 85.9586 47.1055C90.1366 47.1055 94.1587 45.8567 97.5878 43.4941C100.934 41.1878 103.503 37.9813 105.015 34.2205C105.555 32.88 104.905 31.356 103.566 30.8161Z" fill="#7209B7"/>
<path d="M112.971 10.4488C111.526 10.4488 110.356 11.6203 110.356 13.0656V44.5149C110.356 45.9603 111.526 47.1317 112.971 47.1317C114.415 47.1317 115.585 45.9603 115.585 44.5149V13.0643C115.585 11.6189 114.415 10.4475 112.971 10.4475V10.4488Z" fill="#7209B7"/>
<path d="M60.2062 20.9319H57.5444V13.0656C57.5444 11.6202 56.3739 10.4488 54.9297 10.4488C53.4856 10.4488 52.3151 11.6202 52.3151 13.0656V20.9319H49.7318C48.2877 20.9319 47.1172 22.1033 47.1172 23.5487C47.1172 24.9941 48.2877 26.1655 49.7318 26.1655H52.3151V40.2679C52.3151 44.0235 55.367 47.078 59.1195 47.078C60.5636 47.078 61.7341 45.9065 61.7341 44.4612C61.7341 43.0158 60.5636 41.8443 59.1195 41.8443C58.2514 41.8443 57.5444 41.1367 57.5444 40.2679V26.1655H60.2062C61.6503 26.1655 62.8208 24.9941 62.8208 23.5487C62.8208 22.1033 61.6503 20.9319 60.2062 20.9319Z" fill="#7209B7"/>
<path d="M137.123 20.9319C135.679 20.9319 134.509 22.1033 134.509 23.5487V37.621C134.509 39.9508 132.614 41.8469 130.286 41.8469C127.958 41.8469 126.064 39.9508 126.064 37.621V23.5487C126.064 22.1033 124.893 20.9319 123.449 20.9319C122.005 20.9319 120.834 22.1033 120.834 23.5487V37.621C120.834 42.8363 125.074 47.0793 130.285 47.0793C135.496 47.0793 139.735 42.8363 139.735 37.621V23.5487C139.735 22.1033 138.565 20.9319 137.121 20.9319H137.123Z" fill="#7209B7"/>
<path d="M154.377 20.9541C152.858 20.9541 151.423 21.3171 150.149 21.9566V13.0643C150.149 11.6189 148.979 10.4475 147.535 10.4475C146.09 10.4475 144.92 11.6189 144.92 13.0643V34.0305C144.92 34.0619 144.924 34.0934 144.925 34.1248V37.621C144.925 42.8363 149.165 47.0793 154.376 47.0793C159.587 47.0793 163.826 42.8363 163.826 37.621V30.4138C163.826 25.1985 159.587 20.9555 154.376 20.9555L154.377 20.9541ZM158.599 37.6196C158.599 39.9495 156.705 41.8456 154.377 41.8456C152.049 41.8456 150.154 39.9495 150.154 37.6196V30.4125C150.154 28.0826 152.049 26.1865 154.377 26.1865C156.705 26.1865 158.599 28.0826 158.599 30.4125V37.6196Z" fill="#7209B7"/>
<path d="M13.6281 20.983C8.41709 20.983 4.1776 25.226 4.1776 30.4413V33.9374C4.1776 33.9689 4.17236 33.999 4.17236 34.0318V54.998C4.17236 56.4433 5.34287 57.6148 6.78702 57.6148C8.23117 57.6148 9.40168 56.4433 9.40168 54.998V46.1057C10.6743 46.7452 12.1093 47.1081 13.6294 47.1081C18.8404 47.1081 23.0799 42.8651 23.0799 37.6498V30.4426C23.0799 25.2273 18.8404 20.9843 13.6294 20.9843L13.6281 20.983ZM17.8505 37.6485C17.8505 39.9783 15.956 41.8745 13.6281 41.8745C11.3002 41.8745 9.40561 39.9783 9.40561 37.6485V30.4413C9.40561 28.1115 11.3002 26.2153 13.6281 26.2153C15.956 26.2153 17.8505 28.1115 17.8505 30.4413V37.6485Z" fill="#7209B7"/>
<path d="M37.719 20.9541C32.508 20.9541 28.2686 25.1972 28.2686 30.4125V37.6196C28.2686 42.835 32.508 47.078 37.719 47.078H42.9235C44.3676 47.078 45.5381 45.9065 45.5381 44.4612C45.5381 43.0158 44.3676 41.8443 42.9235 41.8443H37.719C35.3911 41.8443 33.4966 39.9482 33.4966 37.6183V36.6316H44.5548C45.999 36.6316 47.1695 35.4601 47.1695 34.0148V30.4112C47.1695 25.1959 42.93 20.9528 37.719 20.9528V20.9541ZM41.9415 31.4005H33.4966V30.4138C33.4966 28.084 35.3911 26.1878 37.719 26.1878C40.047 26.1878 41.9415 28.084 41.9415 30.4138V31.4005Z" fill="#7209B7"/>
</g>
<defs>
<clipPath id="clip0_354_7734">
<rect width="159.655" height="60" fill="white" transform="translate(4.17236 6)"/>
</clipPath>
</defs>
</svg>
